<?xml version="1.0" encoding="utf-8"?>
<!-- Generator: Adobe Illustrator 12.0.1, SVG Export Plug-In  -->
<!DOCTYPE svg PUBLIC "-//W3C//DTD SVG 1.1//EN" "http://www.w3.org/Graphics/SVG/1.1/DTD/svg11.dtd" [
	<!ENTITY ns_flows "http://ns.adobe.com/Flows/1.0/">
	<!ENTITY ns_svg "http://www.w3.org/2000/svg">
	<!ENTITY ns_xlink "http://www.w3.org/1999/xlink">
]>
<svg  version="1.1" xmlns="&ns_svg;" xmlns:xlink="&ns_xlink;" xmlns:a="http://ns.adobe.com/AdobeSVGViewerExtensions/3.0/"
	 width="228" height="64" viewBox="-0.051 -0.533 228 64" enable-background="new -0.051 -0.533 228 64" xml:space="preserve">
<defs>
</defs>
<path fill="#574EA1" d="M33.875,13.5L23.637,29.912L35.625,49H23.648l-7.377-12.127L8.967,49H0l11.766-19.15L1.625,13.5h11.977
	l5.748,9.506L24.99,13.5H33.875z"/>
<path fill="#574EA1" d="M90.848,49h-10.5V29.121c0-2.777-0.084-4.588-0.25-5.432c-0.168-0.844-0.604-1.543-1.307-2.102
	s-1.676-0.838-2.916-0.838c-1.168,0-2.361,0.416-3.578,1.248s-1.824,3.205-1.824,7.123V49h-10.5V29.121
	c0-2.848-0.129-4.693-0.385-5.537c-0.258-0.844-0.742-1.525-1.453-2.049c-0.713-0.523-1.617-0.785-2.715-0.785
	c-1.797,0-3.135,0.576-4.01,1.729s-1.313,3.365-1.313,6.643V49H39.973V13.5h9.75v5.15c1.67-4.016,5.01-6.025,10.021-6.025
	c4.539,0,7.82,2.01,9.844,6.025c1.986-4.016,5.453-6.025,10.398-6.025c2.367,0,4.402,0.484,6.105,1.449
	c1.703,0.967,2.92,2.229,3.654,3.783s1.102,4.23,1.102,8.023V49z"/>
<path fill="#574EA1" d="M99.409,49V1h10.5v48H99.409z"/>
<path fill="#574EA1" d="M122.152,49h-5.498l6-35.5h5.498l-1.695,9.279c1.904-3.656,3.898-6.303,5.98-7.943s4.545-2.461,7.393-2.461
	c0.352,0,0.752,0,1.199,0L140.115,18h-1.344c-2.193,0-3.979,0.412-5.357,1.232s-2.635,1.982-3.766,3.482
	c-1.133,1.502-2.182,3.361-3.146,5.578c-0.967,2.217-1.969,6.469-3.006,12.754L122.152,49z"/>
<path fill="#574EA1" d="M148.865,42.902c-1.596-1.816-2.393-4.494-2.393-8.033c0-4.615,1.035-8.768,3.107-12.459
	c2.07-3.689,5-5.535,8.785-5.535c2.404,0,4.482,0.814,6.232,2.443s2.625,4.258,2.625,7.891c0,4.828-1.037,9.104-3.107,12.828
	c-2.072,3.727-5.025,5.588-8.857,5.588C152.589,45.625,150.458,44.719,148.865,42.902z M168.001,43.504
	c3.313-4.33,4.971-9.148,4.971-14.455c0-5.094-1.293-9.125-3.877-12.094c-2.586-2.969-6.051-4.455-10.398-4.455
	c-5.264,0-9.576,2.16-12.935,6.479c-3.359,4.32-5.039,9.191-5.039,14.613c0,4.813,1.279,8.752,3.842,11.814
	c2.561,3.063,6.063,4.594,10.503,4.594C160.376,50,164.688,47.836,168.001,43.504z"/>
<path fill="#574EA1" d="M223.679,0c-4.301,0-7.627,1.055-9.977,3.164c-2.352,2.109-3.891,5.555-4.619,10.336h-6.625h-11.715
	c0.305-2.947,1.158-5.205,2.557-6.773c1.398-1.566,3.578-2.352,6.541-2.352c0.635,0,1.48,0.084,2.539,0.25l0.74-4.375
	C201.897,0.084,200.804,0,199.841,0c-4.301,0-7.627,1.055-9.977,3.164c-2.352,2.109-3.891,5.555-4.619,10.336h-6.625l-0.738,4.25
	h6.645L179.245,49c-0.305,2.947-1.158,5.205-2.557,6.773c-1.398,1.566-3.578,2.352-6.541,2.352c-0.635,0-1.48-0.084-2.539-0.25
	l-0.74,4.375c1.223,0.166,2.316,0.25,3.279,0.25c4.301,0,7.627-1.055,9.977-3.164c2.352-2.109,3.891-5.555,4.619-10.336l5.281-31.25
	h11.695h6.645L203.083,49c-0.305,2.947-1.158,5.205-2.557,6.773c-1.398,1.566-3.578,2.352-6.541,2.352
	c-0.635,0-1.48-0.084-2.539-0.25l-0.74,4.375c1.223,0.166,2.316,0.25,3.279,0.25c4.301,0,7.627-1.055,9.977-3.164
	c2.352-2.109,3.891-5.555,4.619-10.336l5.281-31.25h8.641l0.705-4.25h-8.627c0.305-2.947,1.158-5.205,2.557-6.773
	c1.398-1.566,3.578-2.352,6.541-2.352c0.635,0,1.48,0.084,2.539,0.25l0.74-4.375C225.735,0.084,224.642,0,223.679,0z"/>
<path d="M5.38,56.176L9.109,62.5H7.458l-2.946-4.964L1.447,62.5H0.085l3.746-6.035l-3.337-5.627h1.635l2.571,4.318l2.605-4.318
	h1.345L5.38,56.176z"/>
<path d="M16.209,59.066c0.477,1.614,1.822,2.362,3.456,2.362c0.698,0,1.55-0.152,2.094-0.578c0.443-0.34,0.715-0.935,0.715-1.495
	c0-1.174-0.971-1.649-1.992-1.904l-1.941-0.477c-0.783-0.187-1.498-0.373-2.111-0.935c-0.613-0.544-0.953-1.343-0.953-2.159
	c0-2.244,1.941-3.213,3.967-3.213c1.958,0,3.524,0.969,4.154,2.856l-1.328,0.356c-0.255-1.274-1.617-2.057-2.86-2.057
	c-1.106,0-2.502,0.578-2.502,1.853c0,1.31,1.021,1.599,2.111,1.854l1.754,0.425c0.766,0.17,1.532,0.391,2.128,0.901
	c0.732,0.595,1.089,1.394,1.089,2.312c0,1.054-0.459,2.006-1.311,2.652c-0.851,0.646-1.992,0.85-3.047,0.85
	c-2.384,0-3.95-1.054-4.733-3.314L16.209,59.066z"/>
<path d="M38.02,62.5h-6.896V50.838h1.464v10.37h5.431V62.5z"/>
<path d="M54.654,62.5V50.838h7.151v1.258h-5.687v3.706h4.716v1.173h-4.716V62.5H54.654z"/>
<path d="M68.259,58.114c0-0.697,0.102-1.53,0.425-2.159c0.375-0.748,1.124-1.224,1.958-1.224c0.749,0,1.464,0.391,1.873,1.02
	c0.442,0.697,0.545,1.547,0.545,2.363c0,0.748-0.068,1.53-0.426,2.21c-0.409,0.782-1.107,1.241-1.992,1.241
	c-0.783,0-1.515-0.426-1.89-1.089C68.378,59.797,68.259,58.896,68.259,58.114z M66.777,58.114c0,2.277,1.158,4.556,3.746,4.556
	c2.622,0,4.018-2.125,4.018-4.539c0-2.277-1.26-4.487-3.797-4.487C68.139,53.644,66.777,55.717,66.777,58.114z"/>
<path d="M82.646,53.864v2.022h0.034c0.409-1.173,1.141-2.261,2.537-2.261l0.494,0.034v1.275h-0.272c-1.021,0-1.737,0.492-2.23,1.359
	c-0.357,0.629-0.426,1.173-0.426,1.854V62.5h-1.328v-8.636H82.646z"/>
<path d="M93.27,53.864v1.666h0.034c0.443-1.037,1.379-1.887,2.588-1.887c1.26,0,2.162,0.85,2.435,2.057
	c0.477-1.19,1.464-2.057,2.792-2.057c0.885,0,1.736,0.492,2.179,1.24c0.426,0.714,0.409,1.666,0.409,2.465V62.5h-1.328v-5.151
	c0-0.577,0.034-1.189-0.238-1.717c-0.29-0.561-0.851-0.9-1.447-0.9c-0.664,0-1.277,0.407-1.668,0.969
	c-0.494,0.697-0.477,1.326-0.477,2.142V62.5H97.22v-5.474c0-0.477-0.034-1.037-0.29-1.462c-0.307-0.511-0.868-0.833-1.447-0.833
	c-0.596,0-1.209,0.391-1.566,0.85c-0.442,0.562-0.528,1.258-0.528,1.972V62.5h-1.328v-8.636H93.27z"/>
<path d="M116.528,58.709c0,1.53-1.106,2.924-2.741,2.924c-0.953,0-1.873-0.441-1.873-1.513c0-1.785,2.145-1.972,3.507-1.972h1.106
	V58.709z M115.404,57.146c-1.073,0-2.35,0.051-3.32,0.51c-0.953,0.425-1.6,1.359-1.6,2.396c0,1.717,1.396,2.618,3.013,2.618
	c1.379,0,2.418-0.544,3.031-1.785l0.153,1.615h1.328c-0.17-0.561-0.188-1.19-0.188-1.819v-3.349c0-0.986,0-2.074-0.715-2.839
	c-0.647-0.748-1.72-0.85-2.656-0.85c-1.583,0-3.49,0.561-3.729,2.362l1.243,0.204c0.238-1.189,1.277-1.53,2.367-1.53
	c1.532,0,2.196,0.578,2.196,2.092v0.374H115.404z"/>
<path d="M129.314,62.568l-1.277,0.102c-1.89,0-2.452-1.104-2.452-2.822v-4.997h-1.532v-1.055h1.532v-2.142l1.328-0.136v2.277h1.924
	v1.055h-1.924v5.219c0,1.003,0.29,1.529,1.379,1.529l1.021-0.085V62.568z"/>
<path d="M139.735,62.568l-1.277,0.102c-1.89,0-2.452-1.104-2.452-2.822v-4.997h-1.532v-1.055h1.532v-2.142l1.328-0.136v2.277h1.924
	v1.055h-1.924v5.219c0,1.003,0.29,1.529,1.379,1.529l1.021-0.085V62.568z"/>
<path d="M147.039,57.298c0.051-1.359,0.987-2.635,2.435-2.635c1.532,0,2.333,1.207,2.315,2.635H147.039z M151.857,59.882
	c-0.375,1.021-1.192,1.666-2.315,1.666c-0.902,0-1.805-0.493-2.213-1.309c-0.324-0.646-0.358-1.275-0.358-1.955h6.283
	c0.067-2.397-1.09-4.641-3.78-4.641c-2.588,0-4.001,2.158-4.001,4.538c0,2.414,1.345,4.488,3.967,4.488
	c1.652,0,3.167-0.952,3.678-2.533L151.857,59.882z"/>
<path d="M161.426,53.864v2.022h0.034c0.409-1.173,1.141-2.261,2.537-2.261l0.494,0.034v1.275h-0.272
	c-1.021,0-1.737,0.492-2.23,1.359c-0.357,0.629-0.426,1.173-0.426,1.854V62.5h-1.328v-8.636H161.426z"/>
</svg>
